<svg xmlns="http://www.w3.org/2000/svg" viewBox="0 0 1024 1024"><path d="M792.73,402.45c-13.89-9.33-24.62-47.44-30.64-64.35-5.89,2.81-26.59,56.27-36.77,73.53-7.66,15.33-10.72,41.37-23,52.09-23,23.36-57.26-2.1-71.08-14.55-90.19,73.73-86.43-46.8-125.63-101.11-6.12-10.72-3.06-16.85-6.12-10.72s-13.79,42.89-16.85,47.49c-19.36,20.44-32.7,59.73-29.11,114.89-6.31,169,104.24,159.43,139.42,298.72,9,43.44,10.66,55.22,37.38,66.65,23.74-5.93,30.83-24.14,38.29-65.88,15.75-74.73,60.8-110.18,111.84-165.44C814.6,572.76,814.1,447.75,792.73,402.45Z" style="fill:gray;stroke:#fff;stroke-miterlimit:10;stroke-width:4px"/><path d="M593,470.62c-41.06,72.88.16,152.79,26,208.34" style="fill:none;stroke:#fff;stroke-miterlimit:10;stroke-width:4px"/><path d="M556.19,482.87c-39.72,157.23,38.06,133.72,26,235.92" style="fill:none;stroke:#fff;stroke-miterlimit:10;stroke-width:4px"/><path d="M632.79,692.74s-6.13-1.53-29.11-12.25c-6.95,1.41-2.57,54.37,0,53.62" style="fill:none;stroke:#fff;stroke-miterlimit:10;stroke-width:4px"/><path d="M599.09,746.36c-5.32,24.23,28.13,80.9,30.63,87.32" style="fill:none;stroke:#fff;stroke-miterlimit:10;stroke-width:4px"/><path d="M668.64,471.38c41.06,72.89-.16,152.79-26,208.34" style="fill:none;stroke:#fff;stroke-miterlimit:10;stroke-width:4px"/><path d="M705.41,483.64c39.72,157.23-38.06,133.72-26,235.91" style="fill:none;stroke:#fff;stroke-miterlimit:10;stroke-width:4px"/><path d="M628.81,693.51s6.13-1.53,29.11-12.25c7,1.41,2.57,54.37,0,53.61" style="fill:none;stroke:#fff;stroke-miterlimit:10;stroke-width:4px"/><path d="M662.51,747.13c5.31,24.23-28.13,80.89-30.63,87.32" style="fill:none;stroke:#fff;stroke-miterlimit:10;stroke-width:4px"/><path d="M661,727.21c-37.81,12.16-22.33,10.86-60.36-.76" style="fill:none;stroke:#fff;stroke-miterlimit:10;stroke-width:4px"/><path d="M500,415c-.63,183.7-8.94,123.64,67.41,284.93" style="fill:none;stroke:#fff;stroke-miterlimit:10;stroke-width:4px"/><path d="M758.4,409.85c-5.5,67.16,16.78,145.67-10.21,207.32-11.62,17.55-31.53,32.38-37.79,52.09" style="fill:none;stroke:#fff;stroke-miterlimit:10;stroke-width:4px"/><path d="M516.74,1031.47c198,0,370-111.85,456-275.82-9.19-37.9-24.5-88.27-29.61-98.48C935.51,641.85,887,583.64,887,583.64c-24.27-29.43-85-17-84.76-59.24-3.83-120.72.36-253.87-44.94-368.67-40.73-108-166.88-112.33-244.08-40.85C409,208.26,494,519.32,398.83,577.51c0,0-37.79,19.92-51.57,30.64s-62.81,76.59-68.94,87.32-13.79,27.57-16.85,67.4C258.59,800.22,249,938.62,247.8,955.69A512.29,512.29,0,0,0,516.74,1031.47Z" style="fill:#333;stroke:#fff;stroke-miterlimit:10;stroke-width:4px"/><path d="M480.53,456C445.69,385.85,453,262.37,540.79,235.39c38.07-14,67.92,12.25,105.19-2,48.63-35.41,116.79,13.39,128.68,64.34,2.68,46.12,10.21,99.91-13.28,137.87" style="fill:none;stroke:#fff;stroke-miterlimit:10;stroke-width:4px"/><path d="M621.47,295.64c4.78,48.65-6,35.72-19.92,61.27-1.41,20.41,29.28,24.38,44.43,18.39,60.6-14.44-21.9-15.51-6.13-79.66" style="fill:none;stroke:#fff;stroke-miterlimit:10;stroke-width:4px"/><path d="M590.83,363c-18.38,24.51-27.57,19.92-32.17,33.7s-7.66,6.13-3.06,23,4.59,35.24,16.85,33.71,12.25,13.78,15.32-6.13c5.08-16.84,15-44.51,27.57-49,7.66-3.06-13.79-4.59,7.66-3.06s15.32-10.72,29.11,4.6,13.78,12.25,21.44,29.1-10.72,12.26,7.66,16.86,9.19,27.57,19.92,0c16.43-35.35,8.06-62.74-9.19-82.73-22.16-7.65-20.26,5.2-36.77,15.32C640.71,385,600.4,375.21,590.83,363Z" style="fill:gray;stroke:#fff;stroke-miterlimit:10;stroke-width:4px"/><path d="M551,278.79c-16.18,9.34-19.16,45.68-7.66,58.21,9.19,12.26,0,18.38,23,13.79s24.51-1.53,35.23-12.26,15.32-1.53,16.85-13.79C646.57,289.78,566.43,274.68,551,278.79Z" style="fill:#333;stroke:#fff;stroke-miterlimit:10;stroke-width:4px"/><path d="M669,311c23-15.32,19.91-13.79,32.17-15.32C773.39,273.5,693.33,365.58,669,311Z" style="fill:#f2f2f2;stroke:#fff;stroke-miterlimit:10;stroke-width:4px"/><circle cx="514.45" cy="515.21" r="514.72" style="fill:#e6e6e6;stroke:#fff;stroke-miterlimit:10;stroke-width:2px"/><line x1="841.25" y1="35.11" x2="854.47" y2="150.18" style="fill:none;stroke:#90d3f0;stroke-miterlimit:10;stroke-width:5.940000057220459px"/><line x1="770.05" y1="146.59" x2="734.65" y2="-12.88" style="fill:none;stroke:#90d3f0;stroke-miterlimit:10;stroke-width:5.940000057220459px"/><line x1="632.16" y1="-5.29" x2="671.42" y2="103.69" style="fill:none;stroke:#90d3f0;stroke-miterlimit:10;stroke-width:5.940000057220459px"/><line x1="434.59" y1="209.08" x2="535.36" y2="215.51" style="fill:none;stroke:#90d3f0;stroke-miterlimit:10;stroke-width:5.940000057220459px"/><line x1="481.03" y1="347.16" x2="626.1" y2="265.8" style="fill:none;stroke:#90d3f0;stroke-miterlimit:10;stroke-width:5.940000057220459px"/><line x1="687.75" y1="305.62" x2="594.12" y2="396.78" style="fill:none;stroke:#90d3f0;stroke-miterlimit:10;stroke-width:5.940000057220459px"/><line x1="743.47" y1="375" x2="721.01" y2="398.72" style="fill:none;stroke:#90d3f0;stroke-miterlimit:10;stroke-width:5.940000057220459px"/><line x1="765.39" y1="499.5" x2="836.96" y2="477.88" style="fill:none;stroke:#90d3f0;stroke-miterlimit:10;stroke-width:5.940000057220459px"/><path d="M770.12,421.55c9.61,25.1,11.52,47.89,8.08,67.34a98.26,98.26,0,0,1-8.71,26.82,88.3,88.3,0,0,1-15.32,21.93L752,539.91c-.79.73-1.59,1.46-2.39,2.17s-1.58,1.41-2.39,2.09-1.82,1.34-2.72,2l94.65,4.3.12-1.12a122.08,122.08,0,0,0-4-42.82,135.66,135.66,0,0,0-16.11-35.94A155.44,155.44,0,0,0,796,442.43,183.15,183.15,0,0,0,770.12,421.55Z" style="fill:none"/><path d="M531.84,223a122.94,122.94,0,0,1-17.28-21.17q-1.6-2.51-3.17-5.15t-2.86-5.41c-.46-.94-.92-1.87-1.39-2.81s-.82-1.89-1.23-2.86q-1.2-2.88-2.31-5.9c-.69-2-1.29-4-1.9-6.12-.28-1.05-.57-2.1-.86-3.16l-.69-3.18c-.43-2.14-.87-4.34-1.19-6.56s-.53-4.43-.73-6.72c-1.41-18.17,1.8-38.33,11.24-58.81-3.62,2.15-7.32,4.43-10.86,7-1.78,1.29-3.59,2.6-5.36,4s-3.48,2.87-5.22,4.37c-.87.75-1.75,1.51-2.61,2.29l-2.51,2.41c-1.67,1.63-3.35,3.3-5,5a142,142,0,0,0-9.36,11.21l-2.22,3c-.75,1-1.48,2-2.15,3.12q-2.08,3.18-4.11,6.51c-1.31,2.23-2.52,4.55-3.75,6.89s-2.35,4.76-3.42,7.24a138.19,138.19,0,0,0-5.72,15.5q-1.12,4.07-2.15,8.25l-.26,1.05s0,.1-.09.12l0,.13,0,.27-.12.53-.45,2.12c-.28,1.43-.56,2.86-.85,4.3-1.12,7.12-2,14.5-2.46,22.1q-.25,5.72-.3,11.58c0,1,0,1.93,0,3s.08,2.07.11,3.11c.1,1.9.19,3.8.29,5.72A177,177,0,0,0,452,287.86a162.7,162.7,0,0,0,21.13,38.86,147.53,147.53,0,0,0,25.36,26.67,141.29,141.29,0,0,0,26.71,17.11c18,8.81,35.87,13.09,53.57,15.27s35.28,2.11,52.86,1.61c18.13-.53,36.24-1.62,54.6-1.43s37,1.64,56.71,7a208.12,208.12,0,0,0-9.71-20.28,220.08,220.08,0,0,0-12-19.38,254.93,254.93,0,0,0-30.38-36c-14.71-14.6-27.73-24.64-40.34-32.22s-24.9-12.69-37.75-17.59-26.26-9.66-40.16-16.47l-5.16-2.66L564.89,247l-2.57-1.46q-2.58-1.49-5.22-3.08c-1.7-1.07-3.4-2.18-5.13-3.33-3.52-2.3-6.78-4.79-10.23-7.45-1.71-1.33-3.3-2.72-5-4.15S533.41,224.58,531.84,223Z" style="fill:none"/><path d="M631.67,387.38c-17.58.5-35.15.56-52.86-1.61s-35.62-6.46-53.57-15.27a141.29,141.29,0,0,1-26.71-17.11,147.53,147.53,0,0,1-25.36-26.67A162.7,162.7,0,0,1,452,287.86,177,177,0,0,1,440.84,236c-.1-1.92-.19-3.82-.29-5.72,0-1-.07-2.07-.11-3.11s0-2,0-3q0-5.86.3-11.58c.49-7.6,1.34-15,2.46-22.1.29-1.44.57-2.87.85-4.3l.45-2.12.12-.53,0-.27,0-.13c.13,0,.06-.08.09-.12L445,182q1-4.18,2.15-8.25a138.19,138.19,0,0,1,5.72-15.5c1.07-2.48,2.16-4.91,3.42-7.24s2.44-4.66,3.75-6.89,2.72-4.39,4.11-6.51c.67-1.07,1.4-2.1,2.15-3.12l2.22-3a142,142,0,0,1,9.36-11.21c1.65-1.74,3.33-3.41,5-5l2.51-2.41c.86-.78,1.74-1.54,2.61-2.29q2.61-2.25,5.22-4.37c1.77-1.39,3.58-2.7,5.36-4,3.54-2.6,7.24-4.88,10.86-7,.93-2.13,2-4.19,3.09-6.28s2.24-4.21,3.45-6.32c.57-1,1.34-2.16,2-3.25l1.09-1.65c.36-.55.77-1.13,1-1.57l1.69-2.82c.58-.91,1.15-1.81,1.74-2.72l-3.25,1.16L517,73.06c-1.27.6-2.65,1.3-4,2l-2,1-1.87,1a164.2,164.2,0,0,0-14.9,9,156,156,0,0,0-28.37,24.61,153.74,153.74,0,0,0-23.37,34.15c-.8,1.63-1.66,3.25-2.38,4.94s-1.46,3.38-2.17,5.1c-1.48,3.42-2.71,7-3.9,10.6s-2.21,7.34-3.15,11.14l-.69,2.85-.17.72,0,.09c.06,0-.09,0-.08,0v.05l0,.18-.07.36-.31,1.45q-.6,2.91-1.15,5.86c-1.15,7.64-2.06,15.56-2.55,23.72q-.28,6.13-.31,12.43c0,1.07,0,2.07,0,3.19l.12,3.35c.1,2,.21,4.06.31,6.1.12,2.73.43,5.41.71,8.08s.58,5.31,1,7.91.85,5.17,1.31,7.71c.24,1.27.47,2.54.72,3.79l.84,3.71c.58,2.45,1.17,4.89,1.79,7.29s1.36,4.71,2.07,7c1.38,4.66,3,9,4.69,13.35a176.94,176.94,0,0,0,24.39,43.32,162.54,162.54,0,0,0,28.6,29,155.08,155.08,0,0,0,29.45,18.08c4.88,2.33,9.76,4.25,14.6,6s9.64,3.18,14.43,4.36a197.86,197.86,0,0,0,28.28,5c18.6,2,36.65,1.75,54.38,1.1,19.59-.71,38.66-1.92,57.79-1.41s38.31,2.62,58.52,9.79c-.48-1.53-1-3.07-1.49-4.62s-1-3-1.58-4.55c-1.11-3.06-2.27-6-3.51-9-19.68-5.34-38.32-6.74-56.71-7S649.8,386.85,631.67,387.38Z" style="fill:#2189b5"/><path d="M650.29,99.59c16.11,7.23,31.55,15.27,47.06,23s31,15,47.3,20.92a232.91,232.91,0,0,0,51.85,12.66,230.27,230.27,0,0,0,29,1.65c5.05,0,10.2-.21,15.42-.54,2.61-.16,5.24-.36,7.84-.59s5.27-.51,7.49-.76l-1.63-14.75c-2.18.24-4.73.5-7.17.72s-5,.41-7.43.57q-7.41.48-14.56.53a217.47,217.47,0,0,1-27.35-1.51,215.4,215.4,0,0,1-49-12c-15.44-5.65-30.26-12.72-45.25-20.31S673.79,93.49,657.71,86c-15.71-7.28-32.25-14-50.38-18.4s-37.88-6.54-60.27-3c-1.22,1.56-2.4,3.13-3.55,4.69s-2.28,3.23-3.37,4.83S538,77.31,537,79s-2,3.35-3,5a122.42,122.42,0,0,1,32.91-5,146.91,146.91,0,0,1,29.85,2.69,197.91,197.91,0,0,1,27.55,7.46C633.19,92.24,641.82,95.8,650.29,99.59Z" style="fill:#2189b5"/><path d="M854.1,549.93a137.65,137.65,0,0,0-6.79-54.67,150.06,150.06,0,0,0-10.22-23.58C835,468,833,464.41,830.71,461q-1.68-2.58-3.4-5.09c-1.19-1.65-2.4-3.28-3.61-4.89a193.62,193.62,0,0,0-32.05-32.85c-2.8-2.3-5.65-4.47-8.47-6.55-1.42-1.05-2.83-2.06-4.24-3.06l-4.39-3.07-.56-.38-.26-.17-.2-.1-.78-.42-1.57-.8-3.1-1.48c-2.06-1-4.12-1.91-6.13-2.72.59,1.61,1.16,3.26,1.73,4.93s1.09,3.31,1.61,5c.26.85.51,1.69.77,2.52a3.3,3.3,0,0,0,.11.34l.19.42.39.84.75,1.68.73,1.67.65,1.6c.42,1.07.83,2.13,1.24,3.19A183.15,183.15,0,0,1,796,442.43a155.44,155.44,0,0,1,23.11,28.15,135.66,135.66,0,0,1,16.11,35.94,122.08,122.08,0,0,1,4,42.82l-.12,1.12,14.87.67Z" style="fill:#2189b5"/><path d="M634.62,3.34c25-9,47.35-12.52,67.63-12.74A173.85,173.85,0,0,1,757.44-1a212.26,212.26,0,0,1,46.28,21.68,371,371,0,0,1,40.86,29.55l-2.42-21.86A327,327,0,0,0,801.68,1.46a212.5,212.5,0,0,0-47-19.27,190.47,190.47,0,0,0-56.42-6.48c-20.7.71-43.44,4.57-68.67,13.66a227.11,227.11,0,0,0-61.35,33.15,200.13,200.13,0,0,0-24.6,22.33c-3.72,4-7.3,8.2-10.62,12.42-1.69,2.18-3.31,4.36-4.88,6.54s-3.1,4.51-4.55,6.74q3-1.06,6-2c2-.58,4-1.1,5.92-1.6,3.93-1,7.74-1.73,11.51-2.36,1.31-1.71,2.63-3.29,4-4.91s2.78-3.25,4.21-4.81c2.86-3.09,5.89-6.24,9-9.15A180.07,180.07,0,0,1,584.7,29.05a196.18,196.18,0,0,1,23.46-14.2A217,217,0,0,1,634.62,3.34Z" style="fill:#2189b5"/><path d="M770.12,421.55c-2-1.37-4-2.61-6.1-4l-1.57-1c-.24-.15-.54-.35-.75-.45l-.59-.28c-.78-.37-1.56-.74-2.33-1.06-3.09-1.32-6.19-2.62-9.22-3.67.73,2.38,1.43,4.83,2.08,7.26l.94,3.63.45,1.85c0,.16.06.3.12.48l.22.58.44,1.15c.27.77.55,1.54.83,2.31s.49,1.48.73,2.22c.47,1.48.9,2.95,1.32,4.4.82,2.92,1.57,5.77,2.16,8.62a115.63,115.63,0,0,1,2.61,32,98.07,98.07,0,0,1-5.8,27.71c-.74,2.1-1.66,4.2-2.56,6.22s-1.93,4-3,5.93a61.84,61.84,0,0,1-7.41,11,85.41,85.41,0,0,1-22,18.54l23.67,1.07c.9-.65,1.84-1.3,2.72-2s1.59-1.38,2.39-2.09,1.6-1.44,2.39-2.17l2.21-2.27a88.3,88.3,0,0,0,15.32-21.93,98.26,98.26,0,0,0,8.71-26.82C781.64,469.44,779.73,446.65,770.12,421.55Z" style="fill:#2189b5"/><path d="M531.84,223c1.57,1.57,3.3,3.07,4.93,4.5s3.26,2.82,5,4.15c3.45,2.66,6.71,5.15,10.23,7.45,1.73,1.15,3.43,2.26,5.13,3.33s3.5,2.09,5.22,3.08l2.57,1.46,2.63,1.39,5.16,2.66c13.9,6.81,27.29,11.57,40.16,16.47s25.16,10,37.75,17.59,25.63,17.62,40.34,32.22a254.93,254.93,0,0,1,30.38,36,220.08,220.08,0,0,1,12,19.38A208.12,208.12,0,0,1,743,392.93c3.11.86,6.22,1.77,9.39,2.86,1.58.54,3.16,1.08,4.75,1.69s3.22,1.25,4.83,1.92A237.39,237.39,0,0,0,737.06,350a271.17,271.17,0,0,0-35.67-43.23,251.33,251.33,0,0,0-21.88-19.49,172.7,172.7,0,0,0-19.85-13.55c-12.82-7.46-25.2-12.14-38.11-16.76-6.46-2.31-13.13-4.63-19.79-7.26a209.93,209.93,0,0,1-20.38-9.14c-3.49-1.76-6.78-3.68-10.25-5.75-1.71-1-3.33-2.11-5-3.23s-3.42-2.27-5-3.48-3.28-2.31-4.93-3.52-3.19-2.51-4.81-3.86-3.22-2.77-4.76-4.25-3.05-3-4.57-4.63c-2-2.09-3.86-4.27-5.7-6.57a93.21,93.21,0,0,1-21-54.28A103.31,103.31,0,0,1,519,118.1c.74-2.87,1.67-5.69,2.7-8.55.51-1.44,1-2.88,1.61-4.33s1.2-2.85,1.85-4.29c2.34-5.62,6.33-12.09,8.89-16.93l-2.77.82-2.8,1c-.43.14-1,.39-1.55.63l-1.65.72L522,88.64c-2.08,1-4.15,2-6.24,3.08s-4.21,2.19-6.25,3.44C500,115.64,496.82,135.8,498.23,154c.2,2.29.45,4.53.73,6.72s.76,4.42,1.19,6.56l.69,3.18c.29,1.06.58,2.11.86,3.16.61,2.09,1.21,4.12,1.9,6.12s1.51,4,2.31,5.9c.41,1,.77,1.91,1.23,2.86s.93,1.87,1.39,2.81q1.39,2.78,2.86,5.41t3.17,5.15A122.94,122.94,0,0,0,531.84,223Z" style="fill:#2189b5"/><path d="M762,399.4q-2.41-1-4.83-1.92c-1.59-.61-3.17-1.15-4.75-1.69-3.17-1.09-6.28-2-9.39-2.86,1.24,3,2.4,6,3.51,9,.55,1.52,1.07,3,1.58,4.55s1,3.09,1.49,4.62c3,1.05,6.13,2.35,9.22,3.67.77.32,1.55.69,2.33,1.06l.59.28c.21.1.51.3.75.45l1.57,1c2.13,1.36,4.07,2.6,6.1,4-.41-1.06-.82-2.12-1.24-3.19l-.65-1.6-.73-1.67-.75-1.68-.39-.84-.19-.42a3.3,3.3,0,0,1-.11-.34c-.26-.83-.51-1.67-.77-2.52-.52-1.65-1-3.3-1.61-5S762.54,401,762,399.4Z" style="fill:#2189b5"/><path d="M534,84q1.43-2.5,3-5c1-1.67,2.08-3.24,3.17-4.88s2.22-3.28,3.37-4.83,2.33-3.13,3.55-4.69c-3.77.63-7.58,1.32-11.51,2.36-2,.5-3.93,1-5.92,1.6s-4,1.3-6,2c-.59.91-1.16,1.81-1.74,2.72l-1.69,2.82c-.24.44-.65,1-1,1.57l-1.09,1.65c-.7,1.09-1.47,2.22-2,3.25-1.21,2.11-2.35,4.22-3.45,6.32s-2.16,4.15-3.09,6.28c2-1.25,4.17-2.35,6.25-3.44s4.16-2.12,6.24-3.08l3.27-1.5,1.65-.72c.56-.24,1.12-.49,1.55-.63l2.8-1Z" style="fill:#2189b5"/><line x1="730.41" y1="548.25" x2="847.43" y2="556.68" style="fill:none;stroke:#90d3f0;stroke-miterlimit:10;stroke-width:5.940000057220459px"/><line x1="755" y1="686.99" x2="643.13" y2="567.96" style="fill:none;stroke:#90d3f0;stroke-miterlimit:10;stroke-width:5.940000057220459px"/><line x1="574.91" y1="591.19" x2="633.42" y2="691.16" style="fill:none;stroke:#90d3f0;stroke-miterlimit:10;stroke-width:5.940000057220459px"/><line x1="411.96" y1="670.04" x2="451.37" y2="763.01" style="fill:none;stroke:#90d3f0;stroke-miterlimit:10;stroke-width:5.940000057220459px"/><line x1="340.03" y1="706.61" x2="384.74" y2="866.81" style="fill:none;stroke:#90d3f0;stroke-miterlimit:10;stroke-width:5.940000057220459px"/><line x1="296.15" y1="913.13" x2="268.01" y2="785.51" style="fill:none;stroke:#90d3f0;stroke-miterlimit:10;stroke-width:5.940000057220459px"/><line x1="200.16" y1="920.37" x2="194.22" y2="888.24" style="fill:none;stroke:#90d3f0;stroke-miterlimit:10;stroke-width:5.940000057220459px"/><line x1="100.3" y1="874.18" x2="111.85" y2="947.52" style="fill:none;stroke:#90d3f0;stroke-miterlimit:10;stroke-width:5.940000057220459px"/><path d="M154.47,914.52C120.9,900.71,92.73,879.85,65.55,859l-9.68-7.49,12.88,93.47.79-.1c4.69-.66,8.87-1.37,13.07-2.18s8.19-1.71,12.1-2.69a214.09,214.09,0,0,0,22.19-6.8A191.56,191.56,0,0,0,154.47,914.52Z" style="fill:none"/><path d="M443.14,762.62c.83-2.09,1.67-4.19,2.5-6.29s1.58-4.26,2.35-6.38l4.5-12.67c3.23-8.61,6.66-17.22,10.36-25.71a311,311,0,0,1,26.48-49.26,189.11,189.11,0,0,0-42.8,4.28q-5.67,1.23-11.48,2.83t-11.86,3.66l-.75.26-.38.13-.29.08-1.14.33-2.28.7c-1.52.49-3.05,1-4.57,1.56l-1.16.42-1.25.42-2.5.88q-2.52.92-5.05,1.93l-1.65.66-1.71.65-3.35,1.35c-2.23.9-4.35,1.86-6.52,2.82-4.44,1.88-8.6,3.93-12.74,6s-8.17,4.29-12.07,6.57S358,702.49,354.39,705a215.74,215.74,0,0,0-39,33.38c-23,24.66-40.55,53.82-59.33,83.71-19.38,30.77-40,62-69.5,87.29,27.43,7.11,58.63,8.62,95.94.65,23.9-5.13,44.22-12.94,61.66-22.7a186.26,186.26,0,0,0,44.44-34.55,209.94,209.94,0,0,0,17.14-20.51c2.62-3.51,5.14-7.23,7.55-10.91s4.73-7.39,6.95-11.21,4.36-7.68,6.42-11.56c1-1.94,2-3.87,3-5.83s2-4,2.9-6q2.85-6,5.51-12C439.82,770.76,441.5,766.68,443.14,762.62Z" style="fill:none"/><path d="M256,822.06c18.78-29.89,36.34-59,59.33-83.71a215.74,215.74,0,0,1,39-33.38c3.65-2.48,7.43-4.85,11.39-7.11s7.87-4.5,12.07-6.57,8.3-4.14,12.74-6c2.17-1,4.29-1.92,6.52-2.82l3.35-1.35,1.71-.65,1.65-.66q2.54-1,5.05-1.93l2.5-.88,1.25-.42,1.16-.42c1.52-.56,3.05-1.07,4.57-1.56l2.28-.7,1.14-.33.29-.08.38-.13.75-.26q6-2,11.86-3.66t11.48-2.83a189.11,189.11,0,0,1,42.8-4.28c3.28-4.93,6.8-9.77,10.47-14.51a203.16,203.16,0,0,0-50.22,3c-4.46.83-9,1.8-13.6,3s-9.3,2.51-14.11,4.07l-3.61,1.2c-1.16.39-2.58.92-3.29,1.09q-2.61.75-5.22,1.66-1.31.45-2.61.93l-2.87,1q-2.89,1-5.82,2.2c-1.09.46-2.29.91-3.48,1.37s-2.35.92-3.5,1.4-2.3,1-3.42,1.46l-1.68.76-1.74.74q-3.48,1.5-6.81,3.11l-6.64,3.27c-4.44,2.21-8.59,4.6-12.83,7s-8.14,5-12.14,7.59a240.86,240.86,0,0,0-41.77,35.58c-24.57,26.14-43.1,56.66-62,86.52-20.91,33-42.11,64.81-73.2,89.27q8.4,3,17.28,5.35C216,884,236.64,852.83,256,822.06Z" style="fill:#2189b5"/><path d="M611.42,690.61c16.39,5,33.31,9.53,51.17,12.21s36.7,3.37,57,0c2.53-.44,5.09-.84,7.67-1.46s5.18-1.27,7.8-2a146.24,146.24,0,0,0,16-5.43c2.71-1,5.45-2.31,8.21-3.62s5.53-2.71,8.33-4.2c1.4-.81,2.8-1.63,4.21-2.48l2.11-1.28c.71-.44,1.38-.84,2.23-1.43s1.61-1.11,2.43-1.67l1.21-.85,1.29-1c1.72-1.34,3.43-2.73,5.15-4.15a194.12,194.12,0,0,0,38.45-42.34,184.7,184.7,0,0,0,26-58.72l1.61-8.83c.27-1.51.53-3,.8-4.57a45.27,45.27,0,0,0,.67-4.65l-14.87-.87a41.66,41.66,0,0,1-.66,4.34l-.78,4.26c-.54,2.81-1.06,5.57-1.58,8.24a169.84,169.84,0,0,1-22.34,50.69C811,624.43,808.6,628,806,631.37s-5.34,6.57-8.06,9.67-5.59,6-8.44,8.78q-2.14,2.08-4.3,4.08c-1.43,1.34-2.88,2.63-4.37,3.86q-4.44,3.74-8.88,7.09c-1.47,1.09-3,2.26-4.41,3.2s-2.86,1.85-4.18,2.63c-2.5,1.43-5,2.78-7.47,4.07s-4.95,2.28-7.4,3.33-4.88,2.09-7.31,2.89-4.83,1.61-7.23,2.33a124.89,124.89,0,0,1-14.17,3.41c-18.66,3.44-36.31,3-53.31.74S633,680.9,616.81,676.16c-32.94-9.73-64.74-21.65-99.31-26.53q-2.84,3.33-5.5,6.77t-5.22,6.92C542.72,667,575.64,679.67,611.42,690.61Z" style="fill:#2189b5"/><path d="M71.59,959.54c2.9-.41,5.5-.82,8.13-1.27s5.15-.92,7.64-1.43c5-1,9.83-2.13,14.5-3.37a227.12,227.12,0,0,0,26.34-8.69,206.21,206.21,0,0,0,43.73-23.93c-6-1.86-11.8-4-17.46-6.33a191.56,191.56,0,0,1-37.57,18.64A214.09,214.09,0,0,1,94.71,940q-5.86,1.47-12.1,2.69c-4.2.81-8.38,1.52-13.07,2.18l-.79.1,2,14.71Z" style="fill:#2189b5"/><path d="M579.05,599.14c1.94-1.14,3.9-2.23,5.8-3.28s3.73-2.08,5.59-3l5.47-2.79q2.67-1.34,5.35-2.55c1.76-.81,3.43-1.6,5.16-2.33s3.47-1.43,5.1-2.11,3.29-1.31,4.94-1.91l4.88-1.71a195.84,195.84,0,0,1,36.9-8.34,9.37,9.37,0,0,1,2.08-.09l1,0c.34,0,.61.08.92.1,1.19.13,2.43.25,3.7.35s2.59.2,3.94.26,2.69.07,4.09.07,2.85,0,4.33-.06,2.93-.16,4.45-.28,3.08-.27,4.67-.44,3.15-.43,4.77-.69a133.15,133.15,0,0,0,42.18-14.5q3.15-1.79,6.39-3.76l3.25-2a38.41,38.41,0,0,0,3.18-2.16l-23.66-1.39c-1,.59-2,1.14-3,1.68l-3,1.57c-2,1-4,2-6,2.88A110.43,110.43,0,0,1,674.68,562c-1.39.1-2.76.17-4.09.2s-2.69,0-4,0-2.55-.09-3.78-.17-2.46-.23-3.63-.37a61,61,0,0,1-6.66-1.15c-1-.24-2-.5-3-.77l-.73-.21-.86-.08-.84-.09a3,3,0,0,0-.43,0l-.52.07a166.64,166.64,0,0,0-34.24,7.92,229.85,229.85,0,0,0-40.33,19.05,271.47,271.47,0,0,0-40.12,28.35A233.4,233.4,0,0,0,499.8,647.8q4.5.29,8.94.75c2.93.3,5.85.67,8.76,1.08a215.48,215.48,0,0,1,27.38-26.92A259.34,259.34,0,0,1,579.05,599.14Z" style="fill:#2189b5"/><path d="M154.47,914.52c5.17-3.33,10.09-6.82,14.77-10.52-34.93-12.67-64.06-34.15-93.45-56.62-7.63-5.87-15.36-11.76-22.91-17.63l3,21.71L65.55,859C92.73,879.85,120.9,900.71,154.47,914.52Z" style="fill:#2189b5"/><path d="M443.14,762.62c-1.64,4.06-3.32,8.14-5.08,12.19s-3.61,8-5.51,12q-1.43,3-2.9,6c-1,2-2,3.89-3,5.83-2.06,3.88-4.19,7.74-6.42,11.56s-4.53,7.51-6.95,11.21-4.93,7.4-7.55,10.91a209.94,209.94,0,0,1-17.14,20.51,186.26,186.26,0,0,1-44.44,34.55c-17.44,9.76-37.76,17.57-61.66,22.7-37.31,8-68.51,6.46-95.94-.65-4.64,4-9.48,7.84-14.59,11.5A203.09,203.09,0,0,0,223.85,930a240.4,240.4,0,0,0,61.73-5.5c25.86-5.58,47.92-14.08,66.87-24.75a205.87,205.87,0,0,0,48.25-37.53,227.38,227.38,0,0,0,18.47-22.1c2.81-3.84,5.46-7.63,8-11.6s5-7.93,7.34-11.92,4.57-8.11,6.7-12.17,4.15-8.11,6.1-12.3,3.79-8.31,5.55-12.44c.89-2.05,1.75-4.12,2.58-6.24l2.45-6.27c1.77-4.62,3.41-9.15,5.05-13.76s3.32-9.15,5-13.67c3.43-9.06,7-18,10.89-26.72,7.76-17.48,16.72-34.2,27.88-49.73-5.7-.58-11.56-.92-17.45-1a311,311,0,0,0-26.48,49.26c-3.7,8.49-7.13,17.1-10.36,25.71L448,750c-.77,2.12-1.54,4.26-2.35,6.38S444,760.53,443.14,762.62Z" style="fill:#2189b5"/><path d="M171.93,920.85c5.11-3.66,9.95-7.51,14.59-11.5q-8.88-2.29-17.28-5.35c-4.68,3.7-9.6,7.19-14.77,10.52C160.13,916.83,165.94,919,171.93,920.85Z" style="fill:#2189b5"/><path d="M506.78,663.32q2.52-3.5,5.22-6.92t5.5-6.77c-2.91-.41-5.83-.78-8.76-1.08s-5.94-.56-8.94-.75c-3.67,4.74-7.19,9.58-10.47,14.51C495.22,662.4,501.08,662.74,506.78,663.32Z" style="fill:#2189b5"/><path d="M503.36,545.29c-8.08,2.42-1.61,33.21,13.35,20.81,7.95-4.28,6.74,3.95,15.18-.16,7.62-7.77,36.38-7.05,42.49-2.63,16.17,13.58-14.91,1.85-14.1,20.53,8.65-6.28,39.55-.77,42.57-9.08-6.41-8.18,13.65-5.68,14.6-6.31C622.8,562,656.2,558,663.88,560.7c-16.28-7.05-31.06-8.8-48.11-1.47-15.13-6.62-44.16-4.86-58-11.91-1.41-9.36,3-22,5.94-28.2Z" style="fill:#333;stroke:#fff;stroke-miterlimit:10;stroke-width:4px"/><path d="M184.3,510.31c47.64-10,108.94-30.91,146.81-63.87-7.24-28.9,51.78-46.41,71.38-61.27,13.11-23.61,89.66-41.65,95.94-63.58.24-50.06-29.43-57.24-66.75-72.73-10.22-4.07.44-10.39,11-16.2,20.92-8.08,44.19-4.91,62.34-.63,17.85-4,56.92-11.91,74.41,3.52,32.86,27.24,56.71,87.16,63,126,11.25,14.08,23.82,26.86,25.22,44.35-8.33,25.4-28.48,52.94-51.55,64.86-3.94,6.74-30.41,36.5-38,41.43-54.67,24.09-111.78,51.39-170.72,48.6-28.39.14-38.19-14.47-34.79-38.48-11.8,1-54.19-3.8-67.13-5.87-38.23,1.81-89.83,17.47-125.86,6.28-.47-1.78,17.51-6.92,15.1-7.75S184.3,510.31,184.3,510.31Z" style="fill:#333;stroke:#fff;stroke-miterlimit:10;stroke-width:4px"/><path d="M440.08,562.22c-3,33-34,57.67-37.61,90.2-.89,10.68-1.37,38.25-9.85,16.05.52-3.07,9.46-40,10.5-46.08C395.78,594.86,401.2,546.79,440.08,562.22Z" style="fill:#333;stroke:#fff;stroke-miterlimit:10;stroke-width:4px"/><path d="M193.36,509.11c21-2.42,70.07-12.94,85.63-19.61" style="fill:#333;stroke:#fff;stroke-miterlimit:10;stroke-width:4px"/><path d="M193.66,511.37c11.25,2.34,128.39-22.95,137.7-26.49" style="fill:#333;stroke:#fff;stroke-miterlimit:10;stroke-width:4px"/><path d="M331.6,430.94c17.31-4.64,23.34-10.95,32.79-16.77" style="fill:#333;stroke:#fff;stroke-miterlimit:10;stroke-width:4px"/><path d="M333.61,439.2c5.43,0,27.37-6.83,31.43-9.69" style="fill:#333;stroke:#fff;stroke-miterlimit:10;stroke-width:4px"/><path d="M335.66,444.23c10.53,1.65,28-4.33,35.44-7.22" style="fill:#333;stroke:#fff;stroke-miterlimit:10;stroke-width:4px"/><path d="M488.72,446.79c-28.41,10.27-69.2,49.65-105.84,37.49-13.93,4.58-43.1,8.19-40.87-14.64,1.52-5.95-14.36-.63,6.75-11.71s27.45-15.38,27.45-15.38" style="fill:#333;stroke:#fff;stroke-miterlimit:10;stroke-width:4px"/><path d="M427,245.1c28.94-3.76,75.94,8.68,98.71,27C507.65,297.05,447.94,250.45,427,245.1Z" style="fill:#333;stroke:#fff;stroke-miterlimit:10;stroke-width:4px"/><path d="M537.32,262.08c-11.94-11,15.15-19.58,17.66-5.79C559.59,265.79,538.18,272.77,537.32,262.08Z" style="fill:#333;stroke:#fff;stroke-miterlimit:10;stroke-width:4px"/><path d="M618,464.94c32.26-45,25.31-70.05,19.81-118.49" style="fill:#333;stroke:#fff;stroke-miterlimit:10;stroke-width:4px"/><path d="M508.12,290.35c23.27,20.5,42.92,35.92,66.46,53.19,21.46,5.63,38.76,12.45,42.74,35.8" style="fill:#333;stroke:#fff;stroke-miterlimit:10;stroke-width:4px"/></svg>