<svg xmlns="http://www.w3.org/2000/svg" viewBox="0 0 1031.45 1033.98"><circle cx="515.72" cy="515.72" r="514.72" style="fill:#ccc;stroke:#fff;stroke-miterlimit:10;stroke-width:2px"/><path d="M516.74,1031.47c198,0,370-111.85,456-275.82-9.19-37.9-24.5-88.27-29.61-98.48C935.51,641.85,887,583.64,887,583.64c-24.27-29.43-85-17-84.76-59.24-3.83-120.72.36-253.87-44.94-368.67-40.73-108-166.88-112.33-244.08-40.85C409,208.26,494,519.32,398.83,577.51c0,0-37.79,19.92-51.57,30.64s-62.81,76.59-68.94,87.32-13.79,27.57-16.85,67.4C258.59,800.22,249,938.62,247.8,955.69A512.29,512.29,0,0,0,516.74,1031.47Z" transform="translate(1.28 0.51)" style="fill:#333;stroke:#fff;stroke-miterlimit:10;stroke-width:4px"/><path d="M323.77,560.66c-6.86,4.92,9.31,31.92,19.4,15.32,6.13-6.64,7.66,1.53,14.3-5.11,4.68-9.83,32.1-18.53,39.32-16.34,19.7,7.57-13.49,6.62-6.64,24,6.13-8.75,37.14-13.62,37.28-22.46-8.72-5.64,11.05-9.82,11.74-10.73,2.95-7.85,33.22-22.51,41.36-22.46-17.68-1.36-32.23,1.81-45.95,14.3-16.47-1.33-43.34,9.8-58.73,7.65-4.38-8.38-4.35-21.75-3.57-28.6Z" transform="translate(1.28 0.51)" style="fill:#333;stroke:#fff;stroke-miterlimit:10;stroke-width:4px"/><path d="M480.53,456C445.69,385.85,453,262.37,540.79,235.39c38.07-14,67.92,12.25,105.19-2,48.63-35.41,116.79,13.39,128.68,64.34,2.68,46.12,10.21,99.91-13.28,137.87" transform="translate(1.28 0.51)" style="fill:none;stroke:#fff;stroke-miterlimit:10;stroke-width:4px"/><path d="M792.73,402.45c-13.89-9.33-24.62-47.44-30.64-64.35-5.89,2.81-26.59,56.27-36.77,73.53-7.66,15.33-10.72,41.37-23,52.09-23,23.36-57.26-2.1-71.08-14.55-90.19,73.73-86.43-46.8-125.63-101.11-6.12-10.72-3.06-16.85-6.12-10.72s-13.79,42.89-16.85,47.49c-19.36,20.44-32.7,59.73-29.11,114.89-6.31,169,104.24,159.43,139.42,298.72,9,43.44,10.66,55.22,37.38,66.65,23.74-5.93,30.83-24.14,38.29-65.88,15.75-74.73,60.8-110.18,111.84-165.44C814.6,572.76,814.1,447.75,792.73,402.45Z" transform="translate(1.28 0.51)" style="fill:gray;stroke:#fff;stroke-miterlimit:10;stroke-width:4px"/><path d="M10.74,631.64c41.79-24.95,92.91-64.75,118-108.26-16.27-25,33.81-60.75,47.49-81.19,4.7-26.6,71.18-68.61,70-91.4-16.1-47.4-46.49-44.5-86.82-47-11-.52-3-10,5.1-18.9,17.14-14.46,40.18-19.06,58.73-20.93,15.56-9.64,49.92-29.82,71.49-20.93,39.94,15,82,63.9,100.59,98.55,15.22,9.64,31.27,17.62,38.3,33.7C434,402,423.89,434.63,406,453.42c-1.52,7.67-16.84,44.43-22.46,51.58C339.69,545.6,294.6,590,238,606.62c-26.79,9.39-40.82-1.23-45.44-25-10.83,4.78-52.47,14.08-65.37,16.34-35.56,14.18-79.23,45.82-116.94,47-1-1.53,14.3-12.25,11.75-12.25S10.74,631.64,10.74,631.64Z" transform="translate(1.28 0.51)" style="fill:#333;stroke:#fff;stroke-miterlimit:10;stroke-width:4px"/><path d="M269.47,597.3c7.89,32.14-13.35,65.61-6.14,97.53,2.64,10.39,11.18,36.6-4.08,18.39-.51-3.07-4.08-40.86-5.1-47C238.24,642.6,227.68,595.39,269.47,597.3Z" transform="translate(1.28 0.51)" style="fill:#333;stroke:#fff;stroke-miterlimit:10;stroke-width:4px"/><path d="M18.91,627.55c19.06-9.13,62-35.08,74.56-46.46" transform="translate(1.28 0.51)" style="fill:#333;stroke:#fff;stroke-miterlimit:10;stroke-width:4px"/><path d="M19.94,629.6c11.39-1.47,113.89-63.57,121.53-70" transform="translate(1.28 0.51)" style="fill:#333;stroke:#fff;stroke-miterlimit:10;stroke-width:4px"/><path d="M124.11,508.57c14.84-10,18.49-18,25.53-26.55" transform="translate(1.28 0.51)" style="fill:#333;stroke:#fff;stroke-miterlimit:10;stroke-width:4px"/><path d="M128.7,515.72c5.12-1.8,23.64-15.37,26.56-19.4" transform="translate(1.28 0.51)" style="fill:#333;stroke:#fff;stroke-miterlimit:10;stroke-width:4px"/><path d="M132.28,519.81c10.5-1.87,25.06-13.22,31.15-18.38" transform="translate(1.28 0.51)" style="fill:#333;stroke:#fff;stroke-miterlimit:10;stroke-width:4px"/><path d="M277.81,472.32c-23.51,19-49.23,69.49-87.83,70-11.68,8.86-38.07,21.79-43.41-.52-.51-6.12-13.78,4.09,2.56-13.27S170.06,505,170.06,505" transform="translate(1.28 0.51)" style="fill:#333;stroke:#fff;stroke-miterlimit:10;stroke-width:4px"/><path d="M153.72,301.77c26.14-13,74.62-16.56,102.13-6.64C246.87,324.6,175.23,300,153.72,301.77Z" transform="translate(1.28 0.51)" style="fill:#333;stroke:#fff;stroke-miterlimit:10;stroke-width:4px"/><path d="M263.51,281.85c-14.87-6.49,7.93-23.44,14.81-11.23C285.78,278.1,267.81,291.68,263.51,281.85Z" transform="translate(1.28 0.51)" style="fill:#333;stroke:#fff;stroke-miterlimit:10;stroke-width:4px"/><path d="M406,447.3c15.82-53.05,1.07-74.47-19.92-118.47" transform="translate(1.28 0.51)" style="fill:#333;stroke:#fff;stroke-miterlimit:10;stroke-width:4px"/><path d="M245.13,318.11c28.68,11.78,52.29,19.95,80.17,28.6,22.12-1.67,40.7-.87,52.08,19.91" transform="translate(1.28 0.51)" style="fill:#333;stroke:#fff;stroke-miterlimit:10;stroke-width:4px"/><path d="M593,470.62c-41.06,72.88.16,152.79,26,208.34" transform="translate(1.28 0.51)" style="fill:none;stroke:#fff;stroke-miterlimit:10;stroke-width:4px"/><path d="M556.19,482.87c-39.72,157.23,38.06,133.72,26,235.92" transform="translate(1.28 0.51)" style="fill:none;stroke:#fff;stroke-miterlimit:10;stroke-width:4px"/><path d="M632.79,692.74s-6.13-1.53-29.11-12.25c-6.95,1.41-2.57,54.37,0,53.62" transform="translate(1.28 0.51)" style="fill:none;stroke:#fff;stroke-miterlimit:10;stroke-width:4px"/><path d="M599.09,746.36c-5.32,24.23,28.13,80.9,30.63,87.32" transform="translate(1.28 0.51)" style="fill:none;stroke:#fff;stroke-miterlimit:10;stroke-width:4px"/><path d="M621.47,295.64c4.78,48.65-6,35.72-19.92,61.27-1.41,20.41,29.28,24.38,44.43,18.39,60.6-14.44-21.9-15.51-6.13-79.66" transform="translate(1.28 0.51)" style="fill:none;stroke:#fff;stroke-miterlimit:10;stroke-width:4px"/><path d="M590.83,363c-18.38,24.51-27.57,19.92-32.17,33.7s-7.66,6.13-3.06,23,4.59,35.24,16.85,33.71,12.25,13.78,15.32-6.13c5.08-16.84,15-44.51,27.57-49,7.66-3.06-13.79-4.59,7.66-3.06s15.32-10.72,29.11,4.6,13.78,12.25,21.44,29.1-10.72,12.26,7.66,16.86,9.19,27.57,19.92,0c16.43-35.35,8.06-62.74-9.19-82.73-22.16-7.65-20.26,5.2-36.77,15.32C640.71,385,600.4,375.21,590.83,363Z" transform="translate(1.28 0.51)" style="fill:gray;stroke:#fff;stroke-miterlimit:10;stroke-width:4px"/><path d="M668.64,471.38c41.06,72.89-.16,152.79-26,208.34" transform="translate(1.28 0.51)" style="fill:none;stroke:#fff;stroke-miterlimit:10;stroke-width:4px"/><path d="M705.41,483.64c39.72,157.23-38.06,133.72-26,235.91" transform="translate(1.28 0.51)" style="fill:none;stroke:#fff;stroke-miterlimit:10;stroke-width:4px"/><path d="M628.81,693.51s6.13-1.53,29.11-12.25c7,1.41,2.57,54.37,0,53.61" transform="translate(1.28 0.51)" style="fill:none;stroke:#fff;stroke-miterlimit:10;stroke-width:4px"/><path d="M662.51,747.13c5.31,24.23-28.13,80.89-30.63,87.32" transform="translate(1.28 0.51)" style="fill:none;stroke:#fff;stroke-miterlimit:10;stroke-width:4px"/><path d="M551,278.79c-16.18,9.34-19.16,45.68-7.66,58.21,9.19,12.26,0,18.38,23,13.79s24.51-1.53,35.23-12.26,15.32-1.53,16.85-13.79C646.57,289.78,566.43,274.68,551,278.79Z" transform="translate(1.28 0.51)" style="fill:#333;stroke:#fff;stroke-miterlimit:10;stroke-width:4px"/><path d="M669,311c23-15.32,19.91-13.79,32.17-15.32C773.39,273.5,693.33,365.58,669,311Z" transform="translate(1.28 0.51)" style="fill:#f2f2f2;stroke:#fff;stroke-miterlimit:10;stroke-width:4px"/><path d="M661,727.21c-37.81,12.16-22.33,10.86-60.36-.76" transform="translate(1.28 0.51)" style="fill:none;stroke:#fff;stroke-miterlimit:10;stroke-width:4px"/><path d="M500,415c-.63,183.7-8.94,123.64,67.41,284.93" transform="translate(1.28 0.51)" style="fill:none;stroke:#fff;stroke-miterlimit:10;stroke-width:4px"/><path d="M758.4,409.85c-5.5,67.16,16.78,145.67-10.21,207.32-11.62,17.55-31.53,32.38-37.79,52.09" transform="translate(1.28 0.51)" style="fill:none;stroke:#fff;stroke-miterlimit:10;stroke-width:4px"/></svg>